<?xml version="1.0" standalone="no"?>
<!DOCTYPE svg PUBLIC "-//W3C//DTD SVG 20010904//EN"
 "http://www.w3.org/TR/2001/REC-SVG-20010904/DTD/svg10.dtd">
<svg version="1.0" xmlns="http://www.w3.org/2000/svg"
 width="900.000000pt" height="382.000000pt" viewBox="0 0 900.000000 382.000000"
 preserveAspectRatio="xMidYMid meet">

<g transform="translate(0.000000,382.000000) scale(0.100000,-0.100000)"
fill="#000000" stroke="none">
<path d="M3413 3795 c4 -8 2 -17 -3 -20 -5 -3 -7 -12 -4 -20 4 -8 -6 -29 -20
-46 -14 -17 -26 -36 -26 -42 0 -7 -9 -18 -21 -25 l-21 -13 23 -25 c27 -29 35
-111 13 -152 -19 -38 -17 -60 6 -67 11 -3 20 -9 20 -13 1 -4 5 -37 9 -75 5
-37 7 -85 4 -107 -5 -34 -10 -41 -39 -50 -63 -21 -84 -92 -44 -143 13 -16 16
-28 10 -32 -18 -11 -41 -79 -35 -103 8 -34 -3 -44 -29 -27 -21 14 -40 43 -45
70 -1 6 -8 17 -16 25 -19 21 -43 122 -51 217 -6 76 -5 82 15 92 26 15 27 35 1
71 -17 24 -19 38 -14 102 12 151 14 141 -31 153 -24 7 -34 14 -25 17 12 4 12
8 3 18 -6 7 -9 18 -7 25 3 7 1 16 -5 20 -17 10 -13 28 4 21 11 -4 15 2 15 20
0 15 -7 27 -19 32 -11 4 -19 12 -19 17 1 6 -11 17 -26 25 -25 14 -28 13 -42
-5 -8 -11 -12 -30 -9 -42 4 -16 1 -23 -10 -23 -9 0 -15 -9 -15 -25 0 -14 5
-25 10 -25 16 0 11 -28 -7 -39 -13 -7 -15 -12 -5 -23 9 -12 5 -17 -23 -27 -19
-7 -35 -15 -35 -19 0 -4 9 -31 21 -61 34 -90 41 -149 24 -185 -15 -29 -15 -32
5 -48 11 -9 25 -18 30 -20 6 -2 13 -54 17 -116 l6 -112 -32 11 c-90 31 -158
-76 -95 -150 14 -17 22 -31 17 -31 -5 0 -16 -12 -24 -26 -13 -25 -12 -28 15
-49 l29 -23 -43 -13 c-40 -12 -44 -12 -54 5 -6 11 -26 39 -44 63 -29 39 -62
131 -62 173 0 8 9 21 20 28 27 17 25 33 -9 63 -31 27 -32 41 -16 171 7 52 5
62 -18 97 -15 22 -35 42 -47 46 -11 4 -20 15 -20 26 0 16 -6 20 -27 17 -21 -2
-27 -8 -25 -22 2 -10 -6 -25 -17 -32 -11 -8 -26 -32 -32 -53 -13 -43 -2 -90
33 -148 11 -18 16 -37 13 -43 -4 -6 -2 -17 4 -24 11 -13 -6 -66 -21 -66 -5 0
-8 -9 -8 -20 0 -13 9 -22 25 -26 22 -5 25 -12 27 -53 3 -71 -2 -125 -12 -135
-7 -7 -10 -4 -10 5 0 8 -14 28 -30 44 -42 40 -97 41 -137 3 l-28 -27 -13 27
c-7 17 -44 49 -92 81 -44 29 -80 56 -80 61 0 5 24 16 53 24 69 20 87 40 87 99
0 59 -8 63 -132 69 -82 4 -103 9 -143 33 l-47 27 -29 -28 c-68 -65 -76 -180
-19 -272 16 -26 43 -78 60 -114 26 -56 30 -74 25 -112 l-7 -44 -32 19 c-49 30
-92 25 -132 -15 -48 -48 -44 -105 10 -148 20 -16 20 -18 4 -34 -16 -17 -18
-17 -38 1 -11 10 -35 67 -56 133 -37 121 -39 159 -8 193 14 16 15 26 4 82 -15
79 -18 85 -59 93 -27 6 -33 4 -38 -15 -7 -27 -23 -27 -30 -1 -6 21 -35 26 -81
13 -17 -4 -22 -11 -19 -24 3 -11 1 -22 -4 -25 -5 -3 -9 2 -9 10 0 20 -43 21
-59 2 -10 -11 -10 -29 0 -76 9 -49 20 -69 54 -105 l42 -45 12 -126 c8 -86 9
-129 2 -138 -6 -7 -12 -33 -13 -57 -2 -28 -12 -56 -25 -73 -29 -36 -38 -65
-24 -79 6 -6 11 -21 11 -33 0 -30 52 -69 111 -84 33 -8 65 -9 110 -2 35 5 65
9 66 8 1 0 -1 -12 -4 -26 -4 -22 -17 -30 -89 -55 -46 -16 -84 -32 -84 -35 0
-3 67 -47 149 -98 l148 -93 257 102 c141 56 256 103 254 104 -2 2 -52 31 -113
65 -113 64 -181 115 -166 124 26 16 153 56 162 51 5 -4 7 -16 4 -26 -8 -25 8
-45 59 -71 50 -26 143 -27 214 -4 58 20 117 78 107 105 -8 19 -8 20 -6 43 1
15 20 8 115 -39 l114 -57 211 84 c116 46 208 87 204 91 -4 4 -52 26 -105 49
-54 24 -98 49 -98 56 0 7 -14 24 -31 36 l-30 23 58 22 c76 29 85 29 78 0 -5
-19 1 -29 32 -53 31 -23 50 -29 103 -32 83 -5 136 10 178 49 28 26 32 36 27
60 -4 16 -2 29 3 29 5 0 53 -18 107 -41 l98 -41 174 68 c95 38 173 71 173 74
0 3 -40 21 -90 39 -68 25 -90 38 -90 51 0 10 -14 29 -32 41 l-32 23 30 12 c66
26 76 27 70 7 -6 -20 19 -50 61 -72 30 -15 147 -14 186 3 45 19 70 50 62 75
-9 29 6 27 108 -10 l84 -31 147 58 c80 31 146 60 146 64 0 3 -36 17 -80 29
-64 19 -80 27 -80 43 0 10 -11 29 -25 42 -14 13 -25 26 -25 29 0 4 55 27 65
27 1 0 0 -10 -2 -22 -3 -17 4 -28 29 -44 65 -42 176 -42 227 1 37 32 40 93 6
123 -14 12 -27 33 -31 47 -3 14 -10 25 -14 25 -5 0 -14 25 -21 56 -12 55 -12
57 12 75 l24 18 -22 22 -21 22 20 27 c37 51 1 120 -62 120 -60 0 -98 -67 -65
-116 15 -23 15 -27 1 -43 -21 -23 -20 -51 0 -51 14 0 16 -8 11 -51 -4 -29 -13
-59 -21 -68 -7 -9 -17 -26 -21 -39 -10 -34 -51 -27 -47 8 2 17 -6 34 -23 50
-14 13 -25 31 -25 39 0 9 -6 28 -14 43 -8 14 -19 72 -25 128 -11 104 -6 134
25 153 9 5 14 27 14 60 0 51 -1 53 -33 65 -44 16 -57 15 -57 -3 0 -8 -7 -15
-15 -15 -8 0 -15 7 -15 15 0 19 -48 20 -72 1 -26 -19 -24 -95 3 -141 18 -30
20 -45 14 -100 -3 -36 -11 -67 -16 -70 -5 -4 -9 -20 -9 -36 0 -53 -22 -123
-48 -151 -13 -15 -22 -33 -19 -41 3 -9 -2 -17 -13 -20 -20 -5 -30 10 -30 44 0
10 -5 19 -11 19 -7 0 -9 9 -5 24 3 13 -1 43 -9 66 -15 42 -10 111 16 228 13
59 11 117 -4 155 -16 38 -33 53 -67 62 -22 5 -30 0 -57 -38 -17 -25 -56 -61
-87 -82 -47 -31 -56 -42 -56 -67 0 -52 15 -68 66 -68 25 0 44 -4 42 -8 -1 -5
-25 -52 -52 -105 -46 -89 -49 -99 -39 -132 7 -20 7 -37 2 -41 -5 -3 -9 -16 -9
-29 0 -13 -11 -36 -24 -52 -18 -22 -24 -38 -21 -66 4 -47 -7 -47 -29 1 -9 20
-23 49 -31 63 -8 15 -19 54 -23 88 -8 55 -7 63 10 72 19 10 25 39 8 39 -5 0
-10 7 -10 15 0 8 -5 15 -10 15 -13 0 -8 67 9 131 12 42 11 52 -8 93 -11 25
-25 46 -31 46 -6 0 -15 12 -20 26 -11 27 -45 31 -45 5 0 -8 -12 -27 -27 -44
-32 -34 -37 -92 -14 -154 27 -73 28 -92 4 -125 l-22 -31 22 -15 c30 -20 31
-72 2 -72 -12 0 -32 -12 -45 -26 -30 -33 -33 -82 -6 -115 19 -24 19 -24 1 -44
-11 -12 -23 -38 -28 -60 -12 -61 -32 -55 -74 23 -44 82 -66 163 -70 258 -3 64
-1 74 20 90 l23 19 -26 38 c-14 20 -25 43 -24 50 1 6 -1 20 -6 30 -4 11 0 36
10 64 15 38 15 47 4 54 -8 5 -17 9 -21 9 -5 0 -8 5 -8 12 0 7 -12 25 -27 40
-15 16 -28 34 -29 41 -3 30 -18 57 -31 57 -9 0 -13 -6 -10 -15z m961 -707 c-4
-7 -16 -19 -27 -27 -12 -9 -17 -22 -14 -36 3 -19 -3 -26 -36 -39 -32 -13 -43
-13 -49 -3 -13 20 -9 26 27 41 20 9 43 29 53 46 9 16 25 30 35 30 12 0 16 -4
11 -12z m-320 -92 c-3 -8 -14 -12 -25 -9 -21 6 -21 6 -13 27 5 12 11 13 25 6
10 -6 16 -16 13 -24z m-414 -244 c0 -4 -27 -18 -59 -29 -53 -19 -60 -20 -65
-6 -8 19 -11 18 49 30 67 14 75 14 75 5z m-1236 -107 c-14 -21 -18 -22 -30
-11 -7 8 -19 16 -26 18 -8 3 -6 13 7 36 l19 31 23 -25 c22 -23 22 -26 7 -49z
m26 -75 c8 -5 12 -11 9 -14 -3 -3 -14 1 -25 9 -21 16 -8 20 16 5z m385 -105
c0 -21 -9 -28 -68 -50 -82 -30 -94 -31 -102 -5 -4 12 -15 29 -25 38 -18 17
-16 18 53 19 40 1 86 6 102 12 17 5 32 10 35 10 3 1 5 -10 5 -24z m-900 -75
c3 -5 1 -10 -4 -10 -6 0 -11 5 -11 10 0 6 2 10 4 10 3 0 8 -4 11 -10z m662
-146 c-3 -3 -12 -4 -19 -1 -8 3 -5 6 6 6 11 1 17 -2 13 -5z m-782 -16 c5 4 5
1 1 -6 -6 -10 -11 -10 -22 -1 -8 6 -14 14 -14 16 0 3 6 0 13 -6 8 -6 18 -7 22
-3z m272 -174 c-3 -3 -12 -4 -19 -1 -8 3 -5 6 6 6 11 1 17 -2 13 -5z"/>
<path d="M4963 3007 c-73 -29 -133 -54 -133 -57 0 -3 76 -29 169 -59 l169 -54
136 58 c74 33 134 61 132 62 -6 6 -320 103 -331 102 -5 0 -70 -24 -142 -52z"/>
<path d="M7352 3040 c0 -14 2 -19 5 -12 2 6 2 18 0 25 -3 6 -5 1 -5 -13z"/>
<path d="M7393 3025 c0 -8 6 -16 14 -19 8 -3 13 2 13 14 0 11 -6 20 -13 20 -8
0 -14 -7 -14 -15z"/>
<path d="M6778 3003 c-27 -32 -29 -54 -8 -97 24 -49 64 -81 88 -70 14 6 13 8
-7 13 -37 10 -38 31 -2 31 17 0 31 -5 31 -10 0 -6 11 -3 25 6 32 21 33 36 2
25 -57 -22 -146 55 -118 102 6 9 10 17 8 17 -2 0 -11 -8 -19 -17z"/>
<path d="M7227 2999 c4 -13 8 -18 11 -10 2 7 -1 18 -6 23 -8 8 -9 4 -5 -13z"/>
<path d="M7450 3005 c0 -8 5 -15 10 -15 6 0 10 7 10 15 0 8 -4 15 -10 15 -5 0
-10 -7 -10 -15z"/>
<path d="M7086 2979 c-14 -17 -26 -36 -26 -42 0 -6 -10 -23 -22 -37 -13 -14
-2 -4 24 24 26 28 49 58 51 68 7 25 3 23 -27 -13z"/>
<path d="M7280 2964 c0 -11 -6 -15 -18 -12 -16 5 -18 -3 -20 -66 -2 -90 -15
-164 -48 -267 -14 -44 -23 -83 -20 -86 2 -3 13 -2 24 1 21 7 45 56 56 116 19
94 37 141 59 150 17 7 18 9 5 9 -19 1 -26 31 -7 31 6 0 3 7 -5 16 -9 8 -13 20
-10 25 3 6 8 25 11 42 3 18 9 35 15 38 5 3 2 9 -7 13 -26 10 -35 7 -35 -10z"/>
<path d="M7407 2960 c-3 -11 -2 -22 3 -25 4 -3 10 4 13 15 3 11 2 22 -3 25 -4
3 -10 -4 -13 -15z"/>
<path d="M6520 2913 c0 -13 5 -23 10 -23 13 0 13 11 0 30 -8 12 -10 11 -10 -7z"/>
<path d="M6490 2863 c0 -4 -17 -30 -39 -55 -48 -58 -60 -97 -35 -115 30 -22
45 -17 34 13 -6 14 -10 38 -10 53 0 36 52 87 85 83 13 -2 25 1 28 5 3 5 -2 9
-11 9 -9 1 -25 4 -34 9 -10 4 -18 3 -18 -2z"/>
<path d="M6744 2845 c-8 -13 -13 -29 -10 -34 4 -5 -3 -28 -15 -50 -22 -43 -22
-119 0 -174 6 -16 11 -32 11 -37 0 -22 96 -28 122 -7 8 6 25 28 38 47 l24 35
-26 -23 -26 -23 -49 49 c-63 63 -81 102 -64 147 6 18 9 40 5 49 -3 9 -1 23 6
31 7 8 10 15 6 15 -3 0 -13 -11 -22 -25z"/>
<path d="M5704 2778 c-71 -33 -132 -63 -136 -67 -4 -4 81 -35 190 -70 l198
-63 70 34 c38 19 76 33 85 31 11 -3 18 5 22 22 3 21 0 28 -17 35 -19 7 -19 9
-3 15 9 4 26 5 37 2 13 -3 20 0 20 8 0 18 -11 24 -51 29 -27 4 -209 57 -275
80 -6 3 -69 -23 -140 -56z"/>
<path d="M6957 2822 c-30 -33 -16 -115 22 -127 12 -3 21 -11 21 -16 0 -19 -53
-142 -80 -189 -23 -40 -26 -52 -20 -97 3 -28 12 -58 19 -67 18 -22 3 -20 -39
4 l-35 21 29 -26 c20 -18 36 -25 50 -21 12 3 43 6 69 6 58 0 54 15 -8 31 -35
9 -46 17 -54 42 -18 49 -14 66 43 186 l54 115 49 14 c49 14 82 36 70 48 -3 3
-19 -3 -35 -15 -17 -12 -43 -21 -60 -21 -24 0 -35 8 -60 47 -23 36 -28 51 -21
65 12 23 7 23 -14 0z"/>
<path d="M5060 2784 c-58 -25 -125 -54 -150 -65 l-45 -21 180 -63 c99 -35 185
-64 191 -65 7 0 76 31 155 68 l144 69 -175 58 c-96 32 -179 59 -185 61 -5 2
-57 -17 -115 -42z"/>
<path d="M4333 2757 c-84 -34 -153 -64 -153 -67 0 -3 76 -34 169 -69 l170 -63
163 70 c91 40 156 73 148 76 -134 50 -327 116 -335 115 -5 0 -79 -29 -162 -62z"/>
<path d="M6884 2774 c-18 -14 -18 -15 4 -4 12 6 22 13 22 15 0 8 -5 6 -26 -11z"/>
<path d="M6640 2750 c-8 -5 -12 -12 -9 -15 4 -3 12 1 19 10 14 17 11 19 -10 5z"/>
<path d="M6378 2668 c7 -7 12 -31 12 -54 0 -45 24 -74 63 -74 20 0 69 44 60
54 -5 5 36 9 82 9 6 0 18 9 26 21 16 21 16 21 -80 21 -71 0 -105 5 -130 18
-40 20 -50 22 -33 5z"/>
<path d="M6100 2600 c0 -5 4 -10 9 -10 5 0 18 -3 28 -6 16 -5 16 -4 -1 10 -23
18 -36 20 -36 6z"/>
<path d="M6662 2598 c-7 -7 -12 -15 -12 -19 0 -11 37 -17 51 -9 10 7 10 11 0
24 -16 19 -23 20 -39 4z"/>
<path d="M6329 2584 c-9 -12 -24 -15 -51 -11 -47 6 -58 -7 -19 -23 34 -13 64
-2 81 30 13 24 7 26 -11 4z"/>
<path d="M5950 2559 c0 -5 5 -7 10 -4 6 3 10 8 10 11 0 2 -4 4 -10 4 -5 0 -10
-5 -10 -11z"/>
<path d="M6055 2561 c4 -7 1 -18 -5 -26 -9 -11 -9 -15 -1 -15 6 0 11 5 11 11
0 7 15 10 39 7 22 -2 37 0 35 4 -3 5 -14 8 -25 8 -11 0 -30 5 -41 11 -15 8
-19 8 -13 0z"/>
<path d="M5085 2488 c-82 -38 -153 -73 -158 -77 -4 -4 83 -42 194 -84 l201
-76 49 24 c59 30 63 31 49 4 -7 -11 -9 -32 -6 -45 8 -28 11 -28 -47 -8 l-46
16 -91 -48 c-49 -26 -90 -51 -90 -55 0 -3 9 -9 19 -12 27 -7 61 -65 61 -105 0
-43 -40 -82 -84 -82 -41 1 -112 33 -125 58 -16 29 -14 64 5 92 16 24 15 23
-10 -2 -42 -43 -34 -100 21 -160 21 -22 29 -25 44 -15 14 9 21 9 31 -1 19 -19
34 -15 73 19 l35 31 84 -35 c78 -33 85 -34 101 -19 10 10 15 11 11 5 -4 -7 -4
-18 -1 -24 10 -15 32 20 56 88 15 44 16 58 7 65 -7 4 -15 8 -18 8 -3 0 -14 14
-24 30 -16 29 -16 33 -2 55 19 29 22 30 43 9 11 -11 30 -15 60 -12 36 3 42 1
36 -12 -17 -38 -14 -103 8 -176 19 -61 29 -78 49 -86 28 -11 97 -3 117 14 9 7
17 7 29 -2 8 -8 50 -15 93 -18 73 -4 78 -6 73 -24 -5 -19 -11 -20 -76 -15 -39
3 -82 8 -96 11 -21 5 -21 4 5 -8 17 -9 58 -15 93 -16 34 0 62 -2 62 -5 0 -2
-5 -15 -11 -29 -13 -27 -3 -48 30 -66 13 -6 16 -2 18 26 1 19 10 58 21 87 17
46 26 83 37 167 13 95 17 110 33 111 10 0 6 4 -8 8 -47 15 -90 41 -106 67 -9
13 -19 23 -21 20 -7 -7 18 -49 40 -67 20 -16 20 -21 10 -122 -6 -58 -14 -110
-18 -116 -3 -6 -24 -11 -45 -11 -42 0 -140 19 -140 26 0 3 7 19 16 37 l16 32
-29 -30 c-15 -16 -27 -34 -25 -40 1 -5 -9 3 -23 18 -14 15 -25 26 -25 23 0 -2
-15 10 -34 27 -70 67 -92 133 -61 187 18 31 19 46 3 33 -27 -21 -116 4 -147
41 -7 9 -13 32 -13 53 0 43 37 83 78 83 25 0 130 48 121 56 -4 4 -396 145
-400 143 -1 0 -69 -32 -152 -71z"/>
<path d="M4337 2473 l-178 -77 191 -78 191 -79 175 82 c108 51 170 85 162 90
-14 8 -356 139 -360 139 -2 -1 -83 -35 -181 -77z"/>
<path d="M3602 2466 c-101 -41 -185 -76 -188 -78 -2 -3 73 -40 167 -83 l171
-77 191 82 c106 46 193 84 195 85 3 3 -338 145 -347 144 -3 0 -88 -33 -189
-73z"/>
<path d="M6375 2522 c-4 -11 1 -23 15 -34 28 -22 62 -24 54 -3 -4 10 0 15 12
16 14 0 11 3 -7 8 -14 5 -35 13 -46 19 -17 10 -22 9 -28 -6z"/>
<path d="M5826 2511 c-10 -11 -50 -36 -89 -57 l-71 -37 64 -25 c36 -13 77 -25
92 -25 15 0 29 -6 32 -14 7 -16 69 -17 98 -2 20 11 21 9 15 -25 -3 -19 -3 -35
1 -34 4 0 24 -6 44 -15 45 -21 93 -23 81 -4 -11 18 -12 36 -2 43 5 3 7 10 4
15 -4 5 0 9 7 9 9 0 10 3 2 8 -7 4 4 18 30 36 22 16 37 23 31 15 -5 -8 -3 -7
7 3 12 13 18 15 21 6 4 -10 6 -9 6 1 1 11 4 11 17 1 8 -8 14 -9 13 -4 -4 24 3
27 14 6 13 -23 13 -23 29 11 l16 34 -36 -13 c-70 -25 -218 -8 -279 31 -21 14
-21 14 -16 -41 l6 -56 -34 7 c-83 17 -126 73 -93 122 18 28 13 30 -10 4z"/>
<path d="M6605 2520 c-3 -5 7 -23 22 -40 22 -23 31 -28 43 -19 13 9 13 11 1
16 -8 3 -25 16 -38 29 -12 12 -25 19 -28 14z"/>
<path d="M6720 2501 c0 -17 4 -31 9 -31 5 0 17 -3 25 -6 12 -5 15 -2 10 10 -5
13 2 16 42 17 l49 1 -53 8 c-29 4 -59 13 -67 20 -13 11 -15 8 -15 -19z"/>
<path d="M7160 2502 c0 -18 57 -35 125 -38 l70 -3 -66 9 c-37 4 -80 15 -98 24
-17 9 -31 13 -31 8z"/>
<path d="M6493 2493 c9 -2 23 -2 30 0 6 3 -1 5 -18 5 -16 0 -22 -2 -12 -5z"/>
<path d="M6340 2483 c0 -14 39 -53 54 -53 6 0 1 7 -11 15 -13 9 -27 23 -32 33
-6 9 -11 12 -11 5z"/>
<path d="M7150 2445 c0 -8 6 -15 13 -16 6 0 22 -2 35 -5 30 -5 28 3 -8 21 -36
19 -40 19 -40 0z"/>
<path d="M6297 2443 c-4 -3 -7 -21 -7 -39 0 -26 4 -32 15 -28 11 5 15 -1 15
-18 0 -13 7 -33 15 -44 21 -28 18 -89 -9 -164 l-23 -65 -59 -3 c-82 -4 -95
-22 -16 -22 60 0 62 -1 52 -20 -8 -16 -21 -20 -59 -20 -42 0 -49 -3 -55 -22
-10 -39 -7 -60 11 -73 17 -13 17 -14 0 -32 -9 -11 -17 -31 -17 -45 0 -21 4
-25 29 -24 16 1 27 4 25 8 -2 4 0 9 5 12 4 3 6 24 4 46 -8 68 2 77 40 37 33
-35 102 -63 135 -54 11 3 8 5 -8 6 -51 3 -138 54 -140 82 0 4 13 12 28 18 16
7 35 21 43 33 8 11 19 26 24 32 6 6 11 22 13 36 2 14 14 50 28 80 26 60 55
175 46 184 -3 3 28 7 69 7 l74 2 -82 7 c-89 8 -152 33 -168 68 -10 23 -17 27
-28 15z m61 -86 c4 -29 -12 -37 -22 -11 -10 26 -7 46 7 42 6 -3 13 -17 15 -31z"/>
<path d="M6710 2442 c0 -15 27 -22 73 -21 l42 1 -47 8 c-26 5 -52 11 -57 15
-6 3 -11 2 -11 -3z"/>
<path d="M6647 2426 c-3 -8 5 -24 19 -37 13 -12 24 -30 24 -39 0 -36 -32 -121
-56 -150 l-26 -30 25 0 c40 0 81 63 93 141 4 24 11 49 16 56 6 8 0 13 -21 18
-17 4 -39 17 -50 31 -14 18 -20 20 -24 10z"/>
<path d="M6418 2423 c7 -3 16 -2 19 1 4 3 -2 6 -13 5 -11 0 -14 -3 -6 -6z"/>
<path d="M6463 2413 c9 -2 23 -2 30 0 6 3 -1 5 -18 5 -16 0 -22 -2 -12 -5z"/>
<path d="M6768 2363 c6 -2 18 -2 25 0 6 3 1 5 -13 5 -14 0 -19 -2 -12 -5z"/>
<path d="M7118 2363 c7 -3 16 -2 19 1 4 3 -2 6 -13 5 -11 0 -14 -3 -6 -6z"/>
<path d="M5797 2333 c-13 -12 -7 -51 9 -57 26 -10 28 -7 9 14 -9 10 -15 26
-12 35 7 16 4 19 -6 8z"/>
<path d="M6830 2280 l0 -40 32 13 c42 17 44 29 9 50 -40 23 -41 23 -41 -23z"/>
<path d="M7200 2290 c24 -8 168 -14 159 -6 -2 2 -44 6 -94 9 -52 3 -79 2 -65
-3z"/>
<path d="M6635 2280 c-11 -5 -35 -9 -52 -9 -35 -1 -47 -21 -13 -21 23 0 90 26
90 34 0 7 1 7 -25 -4z"/>
<path d="M5966 2264 c-7 -18 36 -64 60 -64 9 0 14 6 11 13 -3 9 12 12 67 10
l71 -2 -68 9 c-37 5 -83 17 -102 28 -28 17 -34 18 -39 6z"/>
<path d="M5818 2204 c-24 -83 -10 -101 19 -25 21 57 23 81 5 81 -4 0 -14 -25
-24 -56z"/>
<path d="M5660 2232 c0 -27 52 -43 66 -20 4 7 3 8 -5 4 -6 -4 -23 0 -36 8 -14
9 -25 13 -25 8z"/>
<path d="M5947 2234 c-9 -16 16 -58 43 -70 14 -7 41 -15 60 -18 l35 -6 -39 15
c-45 17 -75 42 -86 69 -3 11 -9 15 -13 10z"/>
<path d="M6243 2233 c9 -2 25 -2 35 0 9 3 1 5 -18 5 -19 0 -27 -2 -17 -5z"/>
<path d="M7239 2230 c18 -4 54 -4 80 0 41 7 37 8 -34 8 -61 0 -72 -2 -46 -8z"/>
<path d="M4348 2142 c-103 -48 -187 -90 -188 -93 0 -3 87 -45 193 -93 147 -67
196 -85 208 -78 9 6 34 14 55 18 22 4 106 42 189 85 l150 78 -40 17 c-229 96
-369 154 -374 154 -3 0 -90 -40 -193 -88z"/>
<path d="M3532 2127 l-212 -92 182 -92 c101 -50 189 -92 196 -92 22 -1 432
193 424 200 -8 7 -368 169 -373 168 -2 0 -100 -42 -217 -92z"/>
<path d="M2721 2116 l-233 -92 168 -94 c93 -51 174 -93 179 -93 9 0 421 175
454 193 10 5 -39 35 -157 94 -94 47 -173 86 -174 85 -2 0 -108 -42 -237 -93z"/>
<path d="M6553 2203 c9 -2 23 -2 30 0 6 3 -1 5 -18 5 -16 0 -22 -2 -12 -5z"/>
<path d="M5747 2136 c-48 -29 -61 -43 -22 -23 31 16 74 46 65 46 -3 0 -22 -10
-43 -23z"/>
<path d="M6610 2143 c0 -21 40 -45 82 -49 l43 -4 -43 14 c-24 8 -52 22 -63 32
-10 9 -19 13 -19 7z"/>
<path d="M7220 2122 c0 -23 -8 -36 -32 -54 -30 -21 -43 -23 -159 -23 l-127 0
19 -24 c11 -13 19 -31 19 -40 0 -12 27 -26 95 -50 l95 -33 68 49 c37 27 95 69
129 94 34 24 62 46 62 50 1 3 -32 16 -71 28 -40 13 -79 26 -85 28 -9 4 -13 -5
-13 -25z"/>
<path d="M6576 2123 c-4 -13 -12 -23 -17 -23 -18 0 -5 -53 14 -56 9 -1 17 4
17 12 0 8 10 14 22 14 l21 0 -20 23 c-11 12 -23 29 -25 37 -4 11 -7 9 -12 -7z"/>
<path d="M6870 2119 c0 -26 204 -43 259 -22 17 7 -2 8 -60 5 -56 -3 -103 1
-141 11 -32 8 -58 11 -58 6z"/>
<path d="M5821 2036 c2 -2 21 -6 42 -10 27 -5 37 -4 32 3 -3 6 -22 11 -42 11
-20 0 -34 -2 -32 -4z"/>
<path d="M5918 2033 c6 -2 18 -2 25 0 6 3 1 5 -13 5 -14 0 -19 -2 -12 -5z"/>
<path d="M6592 1907 c9 -27 171 -47 236 -29 13 4 -17 8 -65 8 -54 1 -105 8
-131 18 -31 11 -42 12 -40 3z"/>
<path d="M4978 1878 c-9 -22 -1 -45 18 -52 16 -6 19 5 5 20 -5 5 -11 18 -13
29 -3 18 -4 18 -10 3z"/>
<path d="M3467 1727 c-131 -61 -234 -114 -230 -118 5 -4 98 -57 208 -118 l199
-110 154 80 c85 44 157 78 160 75 3 -3 10 4 16 16 17 32 56 57 106 66 l45 8
-211 106 -210 106 -237 -111z"/>
<path d="M4500 1821 c-14 -11 -101 -58 -194 -106 l-170 -88 135 -68 c116 -58
139 -67 172 -62 30 4 41 2 52 -13 14 -18 14 -17 15 9 0 17 -5 27 -15 27 -24 0
-18 16 11 29 25 11 25 13 10 30 -21 23 -20 44 3 72 18 23 20 23 38 6 25 -22
105 -23 123 -2 18 22 35 19 54 -10 19 -29 21 -66 4 -83 -9 -9 -9 -12 0 -12 7
0 22 -10 33 -21 l21 -21 42 23 c22 12 45 28 49 36 4 7 18 18 30 25 19 10 21 9
9 -4 -11 -14 -10 -18 6 -30 26 -19 34 -34 47 -100 11 -51 11 -59 -2 -54 -8 3
-18 6 -23 6 -15 0 -72 53 -80 74 -6 13 -9 15 -9 6 -2 -31 40 -80 89 -105 54
-27 70 -61 25 -53 -14 3 -25 3 -25 1 0 -2 11 -8 25 -13 30 -11 31 -28 5 -125
-24 -94 -17 -96 10 -4 12 41 23 80 26 87 5 18 34 14 35 -5 1 -10 6 2 11 25 8
37 6 56 -18 125 -15 45 -32 96 -39 113 -12 29 -6 108 10 135 11 16 22 108 13
103 -4 -3 -8 -15 -8 -27 0 -12 -12 -56 -26 -99 -22 -65 -29 -75 -40 -63 -16
16 -18 41 -4 50 6 3 10 14 10 23 -1 25 -210 118 -210 94 -1 -27 -33 -62 -65
-71 -33 -9 -100 7 -140 33 -28 19 -42 74 -26 105 14 25 13 25 -19 2z m509
-376 c-1 -15 -4 -13 -14 10 -19 40 -18 67 0 35 8 -14 14 -34 14 -45z m15 -121
c3 -8 2 -12 -4 -9 -6 3 -10 10 -10 16 0 14 7 11 14 -7z"/>
<path d="M5404 1832 c9 -14 72 -32 111 -31 22 0 15 4 -25 13 -30 7 -64 17 -74
21 -13 6 -17 5 -12 -3z"/>
<path d="M5583 1825 c-4 -12 0 -23 12 -31 25 -18 39 -18 31 1 -4 12 5 15 47
16 l52 2 -50 7 c-27 4 -58 10 -67 14 -13 6 -20 3 -25 -9z"/>
<path d="M6628 1828 c15 -15 156 -24 189 -11 16 6 1 8 -50 8 -39 0 -90 4 -112
8 -33 7 -38 6 -27 -5z"/>
<path d="M2575 1715 c-132 -57 -246 -107 -252 -112 -9 -5 45 -44 163 -118 97
-60 182 -111 189 -113 11 -3 539 239 532 243 -33 24 -369 205 -378 204 -8 0
-122 -47 -254 -104z"/>
<path d="M5593 1743 c8 -8 24 -13 37 -11 17 2 15 5 -15 14 -32 10 -35 10 -22
-3z"/>
<path d="M5535 1710 c10 -11 20 -20 23 -20 3 0 -3 9 -13 20 -10 11 -20 20 -23
20 -3 0 3 -9 13 -20z"/>
<path d="M6668 1712 c0 -9 0 -29 1 -43 3 -37 -40 -84 -95 -105 -50 -19 -168
-24 -241 -11 -38 6 -43 5 -43 -12 0 -25 11 -32 116 -75 l91 -38 162 120 c89
66 158 123 154 125 -5 3 -39 17 -76 31 -60 23 -67 23 -69 8z"/>
<path d="M5367 1706 c-3 -8 -24 -24 -46 -35 -21 -11 -49 -33 -60 -47 l-22 -27
33 -35 c19 -19 73 -54 123 -77 89 -42 90 -43 99 -21 8 18 10 19 13 4 5 -21 8
-21 33 -8 24 13 60 109 60 160 0 39 1 40 38 41 l37 1 -43 9 c-23 4 -47 11 -52
14 -6 3 -10 -5 -10 -19 0 -25 -3 -26 -53 -26 -55 0 -157 25 -157 38 0 5 5 13
12 20 6 6 9 14 6 17 -3 3 -8 -1 -11 -9z m129 -86 c62 0 65 -1 62 -22 -4 -31
-40 -34 -132 -13 -78 17 -131 49 -108 64 9 5 32 1 63 -10 30 -12 75 -19 115
-19z"/>
<path d="M5762 1687 l-33 -22 3 -79 3 -79 50 -44 c74 -65 139 -87 260 -87 66
-1 107 3 120 12 18 11 16 12 -15 6 -132 -26 -318 24 -379 102 -24 30 -28 91
-8 116 6 9 26 24 42 34 24 15 28 16 17 2 -10 -13 -10 -19 4 -32 13 -14 19 -14
33 -4 9 7 19 17 23 22 11 15 -13 54 -37 60 -13 3 -29 8 -37 10 -7 2 -28 -6
-46 -17z"/>
<path d="M5892 1691 c10 -34 55 -54 130 -57 l73 -3 -60 8 c-61 8 -95 21 -129
50 -15 13 -18 13 -14 2z"/>
<path d="M6193 1676 c2 -6 30 -22 63 -35 66 -27 220 -40 264 -23 19 7 8 8 -42
5 -80 -7 -174 10 -241 42 -26 12 -46 17 -44 11z"/>
<path d="M3948 1502 c-10 -36 8 -82 49 -124 31 -31 44 -38 77 -38 47 0 97 31
121 75 9 16 10 23 3 14 -32 -38 -67 -51 -115 -44 -79 11 -114 41 -123 105 -5
31 -6 32 -12 12z"/>
<path d="M4704 1501 c0 -10 8 -24 18 -30 15 -10 18 -8 18 13 0 13 -7 27 -16
30 -21 8 -20 9 -20 -13z"/>
<path d="M4422 1370 c-1 -37 -7 -71 -12 -78 -6 -6 -8 -10 -5 -8 7 4 73 -61 85
-85 6 -10 10 -31 10 -48 0 -43 -23 -40 -72 9 -35 34 -40 45 -36 75 l4 34 -66
-36 c-36 -21 -82 -46 -102 -58 -44 -24 -46 -31 -14 -56 13 -10 29 -31 35 -46
13 -31 40 -51 150 -113 77 -44 76 -42 56 -106 -7 -22 19 -59 36 -49 15 10 28
76 34 175 8 116 21 173 38 164 7 -4 1 4 -13 18 -43 45 -46 52 -49 108 -1 30
-4 56 -7 59 -2 2 1 10 6 16 7 9 3 17 -15 29 -25 16 -25 16 -25 -10 0 -41 -28
-12 -33 34 -2 23 -4 11 -5 -28z m-2 -232 c0 -3 16 -16 35 -28 20 -13 35 -30
35 -41 0 -23 -3 -23 -40 -4 -40 21 -70 63 -70 99 l0 31 20 -25 c11 -14 20 -28
20 -32z"/>
<path d="M5423 1375 c-23 -16 -50 -46 -60 -65 -10 -19 -24 -41 -31 -49 -7 -7
-12 -20 -10 -29 4 -22 28 -27 28 -5 0 13 6 10 20 -13 47 -73 149 -115 273
-112 l82 1 -85 7 c-114 8 -182 33 -236 84 -51 49 -57 86 -23 130 l21 27 19
-20 c18 -19 49 -19 49 0 0 4 7 6 15 3 19 -8 19 -6 -3 37 l-18 34 -41 -30z"/>
<path d="M5502 1399 c7 -22 69 -49 108 -48 34 1 33 2 -10 10 -25 5 -58 18 -74
30 -18 13 -27 16 -24 8z"/>
<path d="M5824 1367 c39 -34 96 -49 196 -53 l85 -3 -76 8 c-81 9 -130 22 -194
53 l-40 19 29 -24z"/>
<path d="M3378 1237 c-142 -74 -260 -136 -263 -139 -6 -6 439 -288 455 -288
17 0 293 161 324 189 28 25 28 25 21 3 -4 -16 -2 -24 10 -28 22 -9 27 -1 17
27 -10 27 2 75 25 99 13 13 14 13 13 0 -5 -38 2 -42 16 -10 22 48 43 128 36
134 -12 13 -21 4 -24 -24 l-3 -29 -179 99 c-98 55 -182 100 -185 100 -3 -1
-122 -60 -263 -133z"/>
<path d="M4642 1340 c0 -14 2 -19 5 -12 2 6 2 18 0 25 -3 6 -5 1 -5 -13z"/>
<path d="M3951 1303 c-1 -12 6 -29 15 -37 19 -19 31 -21 16 -3 -6 7 -16 24
-21 38 -9 23 -10 23 -10 2z"/>
<path d="M4857 1198 c3 -74 -14 -107 -68 -138 l-39 -21 7 -62 c3 -34 7 -64 9
-66 2 -2 19 7 38 19 20 12 36 17 36 11 0 -18 62 -81 105 -106 50 -30 119 -51
195 -59 38 -5 50 -3 40 4 -8 5 -32 10 -53 10 -51 0 -151 35 -203 70 -26 18
-51 47 -64 76 -20 40 -21 51 -11 83 6 20 23 48 37 62 21 19 24 20 15 4 -15
-23 0 -74 21 -76 7 0 20 -2 29 -4 8 -1 23 3 33 11 18 13 17 16 -18 54 -40 44
-46 81 -21 117 15 22 14 23 -34 48 -28 14 -52 25 -53 25 -2 0 -2 -28 -1 -62z"/>
<path d="M5886 1228 c-3 -13 -6 -37 -6 -54 0 -44 -32 -80 -103 -116 -45 -22
-78 -31 -122 -33 -52 -2 -54 -2 -15 4 45 6 45 6 -25 13 -90 9 -134 22 -179 53
-45 31 -46 18 -1 -41 19 -25 35 -56 35 -70 0 -20 16 -32 110 -79 60 -30 115
-55 122 -55 14 0 401 284 405 297 2 6 -102 57 -208 101 -3 2 -9 -7 -13 -20z
m-313 -195 c-7 -2 -19 -2 -25 0 -7 3 -2 5 12 5 14 0 19 -2 13 -5z"/>
<path d="M5032 1190 c0 -14 2 -19 5 -12 2 6 2 18 0 25 -3 6 -5 1 -5 -13z"/>
<path d="M5016 1133 c-4 -17 -14 -37 -22 -44 -12 -10 -12 -14 6 -26 20 -14
126 -20 138 -8 3 3 -24 5 -60 5 l-66 0 9 41 c6 23 8 47 6 53 -2 6 -7 -3 -11
-21z"/>
<path d="M4775 1124 c-23 -13 -33 -24 -23 -24 9 0 30 11 45 25 35 30 30 30
-22 -1z"/>
<path d="M5160 1070 c-9 -6 -10 -10 -3 -10 6 0 15 5 18 10 8 12 4 12 -15 0z"/>
<path d="M3979 997 c29 -36 151 -46 199 -17 13 8 9 8 -13 3 -55 -14 -141 -8
-171 12 -24 15 -27 16 -15 2z"/>
<path d="M3852 910 c0 -19 2 -27 5 -17 2 9 2 25 0 35 -3 9 -5 1 -5 -18z"/>
<path d="M4831 904 c0 -11 3 -14 6 -6 3 7 2 16 -1 19 -3 4 -6 -2 -5 -13z"/>
<path d="M3860 861 c0 -23 80 -90 122 -102 57 -17 173 -14 226 5 47 17 106 55
98 63 -3 3 -17 -4 -33 -15 -45 -31 -100 -44 -183 -44 -91 0 -166 28 -205 74
-14 16 -25 25 -25 19z"/>
<path d="M4420 806 c0 -17 40 -74 58 -81 12 -4 9 3 -9 22 -15 15 -31 37 -37
48 -6 11 -12 16 -12 11z"/>
<path d="M4905 781 c27 -31 90 -67 143 -81 93 -24 254 -6 307 34 18 14 15 14
-25 0 -61 -21 -182 -29 -253 -15 -59 11 -122 36 -167 68 l-25 17 20 -23z"/>
<path d="M5218 783 c12 -2 30 -2 40 0 9 3 -1 5 -23 4 -22 0 -30 -2 -17 -4z"/>
<path d="M4361 724 c-23 -26 -40 -56 -40 -68 1 -20 2 -20 6 -1 8 29 33 64 56
76 14 8 18 8 12 0 -11 -18 23 -61 60 -77 51 -21 51 -18 6 31 -22 24 -41 54
-41 65 0 31 -14 24 -59 -26z"/>
<path d="M4018 693 c7 -3 16 -2 19 1 4 3 -2 6 -13 5 -11 0 -14 -3 -6 -6z"/>
<path d="M4158 693 c7 -3 16 -2 19 1 4 3 -2 6 -13 5 -11 0 -14 -3 -6 -6z"/>
<path d="M4558 693 c7 -3 16 -2 19 1 4 3 -2 6 -13 5 -11 0 -14 -3 -6 -6z"/>
<path d="M4078 683 c6 -2 18 -2 25 0 6 3 1 5 -13 5 -14 0 -19 -2 -12 -5z"/>
<path d="M4919 618 c-1 -24 -3 -50 -4 -58 -1 -8 -3 -25 -4 -37 -2 -36 -65 -97
-138 -134 -61 -31 -75 -34 -152 -34 -76 0 -93 4 -146 30 -72 36 -140 101 -148
141 -3 16 -2 30 3 32 4 2 3 13 -3 26 -11 22 -12 22 -114 -43 -56 -36 -102 -69
-103 -72 0 -6 573 -369 583 -369 9 0 522 379 524 388 2 4 -32 26 -75 49 -42
24 -110 61 -149 83 l-73 41 -1 -43z"/>
<path d="M4340 547 c0 -2 15 -16 33 -33 l32 -29 -29 33 c-28 30 -36 37 -36 29z"/>
<path d="M4424 476 c11 -9 24 -16 30 -16 12 0 7 5 -24 19 -24 11 -24 11 -6 -3z"/>
<path d="M4553 433 c9 -2 23 -2 30 0 6 3 -1 5 -18 5 -16 0 -22 -2 -12 -5z"/>
<path d="M4610 66 c0 -3 9 -10 20 -16 11 -6 20 -8 20 -6 0 3 -9 10 -20 16 -11
6 -20 8 -20 6z"/>
</g>
</svg>
